Coordinates
version=1
nRows=15
nColumns=33
inDegrees=yes

Units are S.I. units (second, meters, Newtons, ...)
Angles are in degrees.

endheader
time	ground_thorax_rot_x	ground_thorax_rot_y	ground_thorax_rot_z	ground_thorax_tx	ground_thorax_ty	ground_thorax_tz	clav_prot_r	clav_elev_r	scapula_abduction_r	scapula_elevation_r	scapula_upward_rot_r	scapula_winging_r	shoulder_elv_r	plane_of_elev_r	axial_rot_r	elbow_flexion_r	pro_sup_r	wrist_flex_r	wrist_dev_r	clav_prot_l	clav_elev_l	scapula_abduction_l	scapula_elevation_l	scapula_upward_rot_l	scapula_winging_l	shoulder_elv_l	plane_of_elev_l	axial_rot_l	elbow_flexion_l	pro_sup_l	wrist_flex_l	wrist_dev_l	
0.8900	1.595556	5.708415	12.319128	-0.113648	1.035150	0.032244	5.221237	10.698649	20.333357	6.429473	23.322407	-11.209694	5.351583	-72.950570	56.846488	46.769179	-41.271642	70.000000	-25.000000	10.716911	-2.816790	-15.243154	-22.029988	-41.530252	-0.994865	62.136400	-38.531037	-4.892772	62.541541	19.429722	2.676062	-25.000000	
0.9000	1.552593	5.849203	12.190633	-0.113414	1.035247	0.032288	4.903496	10.679397	19.890049	6.361951	23.508319	-11.088742	4.815230	-72.778227	57.077977	46.788832	-41.671616	70.000000	-25.000000	10.855011	-3.047458	-15.542023	-21.869062	-41.683775	-0.863918	61.977500	-38.291589	-4.676963	61.994740	20.022869	2.174336	-25.000000	
0.9100	1.515087	5.994239	12.062018	-0.113167	1.035365	0.032332	4.566264	10.665178	19.427464	6.291767	23.717532	-10.963939	4.263332	-72.586801	57.300636	46.754650	-42.046652	70.000000	-25.000000	11.003199	-3.277585	-15.856380	-21.704310	-41.828453	-0.724426	61.792442	-38.010267	-4.436420	61.418248	20.646508	1.650228	-25.000000	
0.9200	1.459591	6.065808	11.993297	-0.113002	1.035402	0.032303	4.404181	10.584889	19.169987	6.218632	23.748506	-10.881093	3.824573	-72.375458	57.469867	46.663435	-42.041659	70.000000	-25.000000	11.089018	-3.444024	-16.032526	-21.566224	-41.888711	-0.638678	61.619159	-37.781925	-4.266106	60.841514	21.021049	1.377311	-25.000000	
0.9300	1.399600	6.098370	11.961897	-0.112870	1.035379	0.032231	4.335538	10.474467	19.027550	6.145471	23.692966	-10.823316	3.445199	-72.147705	57.608384	46.523818	-41.845356	70.000000	-25.000000	11.142103	-3.579972	-16.133907	-21.435721	-41.896627	-0.580524	61.450859	-37.568483	-4.125823	60.267066	21.262410	1.239687	-25.000000	
0.9400	1.336623	6.099403	11.956600	-0.112767	1.035299	0.032115	4.346824	10.339091	18.988944	6.070797	23.570119	-10.789366	3.113664	-71.895181	57.720931	46.323121	-41.490630	70.000000	-25.000000	11.170103	-3.689076	-16.174896	-21.309703	-41.854090	-0.543504	61.284939	-37.354544	-4.004613	59.702607	21.393445	1.213302	-25.000000	
0.9500	1.274409	6.086375	11.967651	-0.112664	1.035148	0.031969	4.394960	10.206526	19.007747	6.002093	23.432936	-10.771988	2.790581	-71.618906	57.819511	46.067794	-41.083581	70.000000	-25.000000	11.190195	-3.779403	-16.192215	-21.188142	-41.780475	-0.513813	61.112432	-37.127719	-3.876350	59.172859	21.476557	1.233485	-25.000000	
0.9600	1.216610	6.076251	11.980673	-0.112549	1.034938	0.031804	4.444992	10.088240	19.044492	5.938163	23.318073	-10.763349	2.465946	-71.327466	57.910193	45.779062	-40.712851	70.000000	-25.000000	11.216911	-3.864888	-16.217629	-21.065362	-41.694571	-0.479260	60.938707	-36.878249	-3.736098	58.691998	21.561938	1.244100	-25.000000	
0.9700	1.163767	6.068120	11.994759	-0.112427	1.034675	0.031628	4.496783	9.980994	19.097308	5.877200	23.222474	-10.762342	2.153745	-71.031372	57.989834	45.474329	-40.402542	70.000000	-25.000000	11.250962	-3.949983	-16.255429	-20.941605	-41.606479	-0.439238	60.772528	-36.617477	-3.596509	58.268257	21.650489	1.237123	-25.000000	
0.9800	1.117100	6.060910	12.010499	-0.112301	1.034372	0.031445	4.547248	9.877959	19.159174	5.814802	23.142202	-10.765898	1.884303	-70.748130	58.054446	45.181603	-40.160444	70.000000	-25.000000	11.290680	-4.039218	-16.306013	-20.817957	-41.527820	-0.395107	60.626658	-36.356138	-3.475918	57.906708	21.740080	1.202698	-25.000000	
0.9900	1.076707	6.052106	12.028448	-0.112173	1.034049	0.031264	4.596168	9.778021	19.228258	5.750599	23.075421	-10.773193	1.661873	-70.479832	58.106957	44.903313	-39.993374	70.000000	-25.000000	11.337604	-4.136236	-16.374713	-20.695125	-41.467977	-0.345580	60.501522	-36.098648	-3.374508	57.595631	21.835134	1.127479	-25.000000	
1.0000	1.044252	6.043297	12.053841	-0.112038	1.033701	0.031092	4.640446	9.685454	19.296682	5.688558	23.021385	-10.782059	1.502653	-70.242686	58.154223	44.671568	-39.918028	70.000000	-25.000000	11.391654	-4.245248	-16.465936	-20.576426	-41.443084	-0.290833	60.407414	-35.854745	-3.298670	57.338574	21.938569	0.984672	-25.000000	
1.0100	1.018636	6.034570	12.083840	-0.111895	1.033346	0.030927	4.679996	9.602911	19.362960	5.631051	22.979614	-10.792125	1.393533	-70.025263	58.202156	44.465990	-39.911499	70.000000	-25.000000	11.456493	-4.361427	-16.586896	-20.467665	-41.456196	-0.228200	60.331282	-35.615401	-3.233227	57.117983	22.058987	0.757418	-25.000000	
1.0200	1.000721	6.031641	12.125804	-0.111759	1.032971	0.030768	4.712921	9.554761	19.419708	5.597400	22.954545	-10.803515	1.303121	-69.804894	58.272503	44.260860	-39.974743	70.000000	-25.000000	11.555234	-4.477890	-16.788460	-20.390756	-41.543537	-0.141143	60.241308	-35.347711	-3.140087	56.925456	22.244495	0.316160	-25.000000	
1.0300	0.984963	6.036250	12.173560	-0.111622	1.032588	0.030607	4.739494	9.538367	19.466890	5.585906	22.944579	-10.815866	1.215344	-69.573043	58.360722	44.040119	-40.059549	69.999999	-25.000000	11.685681	-4.583821	-17.061644	-20.348314	-41.687862	-0.031722	60.128485	-35.050485	-3.007527	56.750639	22.486911	-0.301947	-25.000000	
